<svg width="31" height="32" viewBox="0 0 31 32" fill="none" xmlns="http://www.w3.org/2000/svg">
<path d="M20.6887 3.08325H10.2649C8.22816 3.08565 6.27552 3.89589 4.83543 5.33622C3.39535 6.77655 2.58543 8.72932 2.58337 10.7661L2.58337 21.1898C2.58577 23.2266 3.39602 25.1792 4.83635 26.6193C6.27668 28.0594 8.22945 28.8693 10.2662 28.8714H20.69C22.7267 28.869 24.6794 28.0587 26.1194 26.6184C27.5595 25.1781 28.3694 23.2253 28.3715 21.1885V10.7648C28.3691 8.72803 27.5589 6.7754 26.1185 5.33531C24.6782 3.89522 22.7254 3.0853 20.6887 3.08325ZM25.7778 21.1885C25.7778 21.8569 25.6462 22.5186 25.3904 23.1361C25.1347 23.7535 24.7598 24.3146 24.2873 24.7871C23.8147 25.2597 23.2537 25.6346 22.6362 25.8903C22.0188 26.1461 21.357 26.2777 20.6887 26.2777H10.2649C8.91541 26.2774 7.62129 25.741 6.66717 24.7867C5.71304 23.8323 5.17704 22.5381 5.17704 21.1885V10.7648C5.17738 9.41529 5.71371 8.12117 6.66808 7.16704C7.62245 6.21292 8.9167 5.67692 10.2662 5.67692H20.69C22.0395 5.67726 23.3336 6.21359 24.2877 7.16796C25.2418 8.12232 25.7778 9.41658 25.7778 10.7661V21.1885Z" fill="white"/>
<path d="M15.4768 9.30786C13.7091 9.3106 12.0145 10.0141 10.7647 11.2642C9.5148 12.5143 8.8116 14.209 8.8092 15.9767C8.81125 17.7449 9.51448 19.4401 10.7647 20.6905C12.0148 21.941 13.7099 22.6445 15.4781 22.6469C17.2465 22.6449 18.9419 21.9414 20.1923 20.691C21.4428 19.4405 22.1462 17.7451 22.1482 15.9767C22.1455 14.2086 21.4416 12.5136 20.191 11.2637C18.9403 10.0138 17.245 9.31086 15.4768 9.30915V9.30786ZM15.4768 20.0532C14.396 20.0532 13.3594 19.6239 12.5952 18.8596C11.8309 18.0954 11.4016 17.0588 11.4016 15.978C11.4016 14.8972 11.8309 13.8607 12.5952 13.0964C13.3594 12.3322 14.396 11.9028 15.4768 11.9028C16.5576 11.9028 17.5941 12.3322 18.3584 13.0964C19.1226 13.8607 19.552 14.8972 19.552 15.978C19.552 17.0588 19.1226 18.0954 18.3584 18.8596C17.5941 19.6239 16.5576 20.0532 15.4768 20.0532Z" fill="white"/>
<path d="M22.1599 10.9561C23.0424 10.9561 23.7577 10.2407 23.7577 9.35829C23.7577 8.47585 23.0424 7.7605 22.1599 7.7605C21.2775 7.7605 20.5621 8.47585 20.5621 9.35829C20.5621 10.2407 21.2775 10.9561 22.1599 10.9561Z" fill="white"/>
</svg>
