<svg width="131" height="24" viewBox="0 0 131 24" fill="none" xmlns="http://www.w3.org/2000/svg">
<path d="M18.8382 0.511617C19.3913 0.486487 19.9336 0.492746 20.4739 0.626496C21.5084 0.882629 22.3711 1.48952 22.9175 2.39066C23.4757 3.29174 23.6413 4.37413 23.3771 5.39557C23.1199 6.39474 22.4661 7.25238 21.5604 7.77868C20.3439 8.47915 19.0614 8.38005 17.7501 8.04775C17.9112 10.6874 18.2304 17.8208 17.2286 19.9824C16.7776 20.9554 15.628 21.6502 14.6416 22.0016C12.6626 22.7066 6.95 23.5953 4.855 23.4917C4.31714 23.4647 3.79019 23.3332 3.30483 23.1049C2.23216 22.6109 1.3207 21.7319 0.923049 20.6283C0.720438 20.066 0.628873 19.4666 0.589019 18.8734C0.477879 17.219 0.625768 15.5297 0.613581 13.8692C0.599041 11.8884 0.389608 9.87952 0.578527 7.90332C0.646707 7.19015 0.789419 6.53935 1.10562 5.88957C1.37518 5.45522 1.70013 5.0508 2.10888 4.73437C2.9341 4.09554 4.27615 3.79154 5.31123 3.91944C6.26401 4.03713 7.10066 4.53761 7.68304 5.2789C8.35783 6.13792 8.70376 7.27673 8.5562 8.35594C8.4222 9.33647 7.924 10.2289 7.11233 10.8285C5.86749 11.7482 4.43806 11.6548 2.97984 11.455C2.96469 13.9061 2.44306 17.0528 3.0547 19.4094C3.21379 20.0224 3.51314 20.6718 4.1006 20.9961C4.52012 21.2276 5.192 21.2065 5.6581 21.1824C6.79769 21.1237 7.93769 20.8416 9.06744 20.679C10.5161 20.4704 12.0573 20.4064 13.4644 20.0064C14.2171 19.7924 14.7995 19.4965 15.1602 18.7888C15.7543 17.6229 15.5792 15.9926 15.573 14.713L15.5159 8.23236C15.5024 6.8886 15.4068 5.47952 15.582 4.14676C15.6606 3.5488 15.8344 2.95079 16.1374 2.42343C16.75 1.35724 17.6669 0.837892 18.8382 0.511617ZM20.0891 5.97342C20.9561 5.65888 21.4037 4.72111 21.0935 3.869C20.7833 3.01688 19.8305 2.56689 18.9554 2.85915C18.379 3.05163 17.9531 3.5326 17.8406 4.11804C17.728 4.70349 17.9462 5.30292 18.4117 5.68705C18.8773 6.07114 19.518 6.18054 20.0891 5.97342ZM4.95748 9.39105C5.54913 9.26987 6.02813 8.8462 6.21074 8.28253C6.39331 7.71885 6.25121 7.10266 5.83888 6.67025C5.42651 6.23789 4.80799 6.05641 4.22044 6.19545C3.33128 6.40588 2.77925 7.2753 2.98054 8.14818C3.18189 9.0211 4.06206 9.57446 4.95748 9.39105Z" fill="white"/>
<path d="M33.8433 4.51526C34.3529 4.46228 34.989 4.55626 35.4915 4.65908C37.3672 5.04269 38.5773 6.12252 39.5915 7.60378C39.9291 7.08881 40.3039 6.57484 40.7622 6.15053C42.003 5.00174 43.5635 4.5255 45.2796 4.54885C46.9021 4.57089 48.4714 5.05219 49.6173 6.18055C50.3255 6.87789 50.8269 7.7716 51.0874 8.70591C51.8237 11.3476 51.3636 16.632 51.2971 19.5C50.5333 19.3781 49.6549 19.4581 48.8773 19.4688C48.8783 16.6047 49.5663 9.74317 47.5007 7.76167C46.7076 7.00045 45.647 6.66833 44.5333 6.66851C43.4099 6.66868 42.3452 6.99169 41.5479 7.76698C39.8355 9.4321 40.2241 12.4351 40.2438 14.5723C40.2663 16.2072 40.2323 17.8453 40.2186 19.4804C39.3832 19.4272 38.5195 19.4731 37.6809 19.4787C37.5759 16.7189 38.0832 12.0944 37.4465 9.62515C37.2708 8.94344 36.9392 8.30343 36.4277 7.7916C35.6493 7.01191 34.6345 6.71369 33.525 6.69055C32.3999 6.66707 31.3375 6.93824 30.5132 7.69414C28.2283 9.78966 28.9926 16.4846 28.9364 19.4782C28.1524 19.3986 27.3146 19.4529 26.5241 19.4573L26.5 4.78594L29.037 4.78886C29.0876 5.47732 29.0769 6.17471 29.0878 6.86482C29.2886 6.61549 29.492 6.36523 29.7108 6.12971C30.7978 4.95943 32.2749 4.60627 33.8433 4.51526Z" fill="white"/>
<path d="M60.8016 4.04703C61.1938 3.99812 61.6143 4.0092 62.0097 4.00171C63.9631 3.96475 65.8847 4.52477 67.3133 5.92717C69.3392 7.91552 69.4663 10.3655 69.5 13.0105C65.3599 12.896 61.202 12.9871 57.0596 12.9777C57.3411 14.4449 57.8896 15.7962 59.0673 16.7683C60.0763 17.6015 61.3446 17.9412 62.6352 17.8075C64.1704 17.6486 65.2223 16.8773 66.1671 15.7011L66.4304 15.2365C67.0942 14.7351 68.4181 15.009 69.2353 14.9964C69.0144 15.6096 68.7629 16.2034 68.4135 16.755C67.429 18.3102 65.963 19.3758 64.1709 19.7676C61.9992 20.2424 59.7228 20.0258 57.8313 18.7808C56.0966 17.6392 55.0898 15.7992 54.6816 13.7908C54.2215 11.5287 54.6374 9.01675 55.9102 7.08237C57.0696 5.31995 58.8085 4.45481 60.8016 4.04703ZM57.1398 10.7646C59.0964 10.8061 61.0539 10.8172 63.011 10.7978C64.3116 10.7959 65.6232 10.7611 66.9224 10.7984C66.6787 9.34619 66.332 7.99568 65.067 7.09432C64.0588 6.37572 62.6862 6.1713 61.4722 6.23538C60.2708 6.38431 59.1821 6.82909 58.4172 7.80943C57.7443 8.67163 57.4641 9.73834 57.1398 10.7646Z" fill="white"/>
<path d="M72.5223 1.5L75.5 1.53412C75.4045 8.52156 75.5515 15.5109 75.4669 22.5C74.5716 22.3507 73.4762 22.4492 72.5565 22.4567C72.4952 15.4713 72.4838 8.48556 72.5223 1.5Z" fill="white"/>
<path d="M85.1974 4.10798C89.5772 3.38531 93.7077 6.36677 94.4007 10.7511C95.0937 15.1354 92.0844 19.2456 87.6954 19.9091C83.3483 20.5662 79.2859 17.5917 78.5993 13.2491C77.9127 8.90649 80.8595 4.82385 85.1974 4.10798ZM87.5441 17.6077C89.0842 17.0954 90.3185 16.4304 91.0846 14.9151C91.8333 13.4343 91.962 11.4888 91.4433 9.91501C91.017 8.62128 90.1235 7.48474 88.8934 6.87478C87.7511 6.30846 86.6451 6.29177 85.4071 6.3481C83.9641 6.75453 82.842 7.41613 82.0915 8.76296C81.238 10.2951 81.0844 12.2589 81.565 13.932C81.9512 15.2765 82.7427 16.4846 83.9912 17.1636C85.0305 17.7289 86.3977 17.9311 87.5441 17.6077Z" fill="white"/>
<path d="M110.079 1.5L112.454 1.53562C112.522 8.43934 112.515 15.3436 112.43 22.2472C111.647 22.1959 110.834 22.2592 110.048 22.2801C110.018 21.3576 110.001 20.4347 109.997 19.5117C109.129 20.6985 108.134 21.6674 106.749 22.1489C104.737 22.8481 102.832 22.4392 100.996 21.4845C100.193 20.9372 99.5027 20.321 98.9264 19.5161C97.642 17.7226 97.2988 15.2468 97.6044 13.0656C97.8764 11.0383 98.9063 9.20549 100.47 7.96778C101.961 6.81085 103.771 6.36279 105.608 6.65345C107.507 6.95402 108.91 7.99848 110.028 9.57643C110.038 6.9039 109.918 4.165 110.079 1.5ZM105.867 20.2084C107.346 19.774 108.449 19.1695 109.233 17.712C110.038 16.2163 110.174 14.2703 109.725 12.6334C109.361 11.3047 108.531 10.1311 107.363 9.4593C106.288 8.84129 105.266 8.84722 104.088 8.95696C102.622 9.39668 101.526 9.97761 100.753 11.435C99.9715 12.9081 99.8443 14.8342 100.299 16.4385C100.684 17.7925 101.537 19.0086 102.744 19.6785C103.728 20.2246 104.777 20.2968 105.867 20.2084Z" fill="white"/>
<path d="M115.5 1.03669C116.154 1.03434 117.757 0.878533 118.262 1.22736C118.578 1.44593 122.885 12.2322 123.075 13.3928C123.887 10.9463 124.941 8.55413 125.886 6.15247C126.508 4.57044 127.036 2.78884 127.861 1.30371C128.371 0.845447 129.847 1.05472 130.5 1.07336C129.379 4.16036 127.979 7.17968 126.683 10.2024C124.76 14.4171 123.288 18.8416 121.241 23C120.406 22.974 119.568 22.976 118.733 22.965C119.096 22.2113 119.358 21.3819 119.673 20.6058L121.642 15.7987C119.591 10.8766 117.41 6.01553 115.5 1.03669Z" fill="white"/>
</svg>
